<svg width="168" height="24" viewBox="0 0 168 24" fill="none" xmlns="http://www.w3.org/2000/svg">
<path d="M47.4415 1.875H33.874V22.125H47.4415C52.2415 22.125 56.149 18.2175 56.149 13.4175V10.5825C56.149 5.7825 52.2415 1.875 47.4415 1.875ZM51.694 9.35625V14.6437C51.694 16.9875 49.7853 18.8962 47.4415 18.8962H38.329V5.10375H47.4415C49.7853 5.10375 51.694 7.0125 51.694 9.35625Z" fill="#E2E2E2"/>
<path d="M75.3899 10.3837H67.7024C66.2437 10.3837 65.0587 9.19875 65.0587 7.74375C65.0587 6.28875 66.2437 5.10375 67.7024 5.10375H80.3699V1.875H66.4762C63.2399 1.875 60.6074 4.5075 60.6074 7.74375C60.6074 10.98 63.2399 13.6125 66.4762 13.6125H74.1637C75.6224 13.6125 76.8074 14.7975 76.8074 16.2525C76.8074 17.7075 75.6224 18.8962 74.1637 18.8962H61.4962V22.125H75.3899C78.6262 22.125 81.2587 19.4925 81.2587 16.2562C81.2587 13.02 78.6262 10.3875 75.3899 10.3875V10.3837Z" fill="#E2E2E2"/>
<path d="M12.7011 1.875L1.94238 22.125H6.55863L15.2361 5.79375L23.9136 22.125H28.5336L17.7711 1.875H12.7011Z" fill="#E2E2E2"/>
<path d="M100.901 1.875H94.4214C89.6214 1.875 85.7139 5.7825 85.7139 10.5825V13.4175C85.7139 18.2175 89.6214 22.125 94.4214 22.125H100.901C105.701 22.125 109.609 18.2175 109.609 13.4175V10.5825C109.609 5.7825 105.701 1.875 100.901 1.875ZM105.154 9.35625V14.6437C105.154 16.9875 103.245 18.8962 100.901 18.8962H94.4214C92.0776 18.8962 90.1689 16.9875 90.1689 14.6437V9.35625C90.1689 7.0125 92.0776 5.10375 94.4214 5.10375H100.901C103.245 5.10375 105.154 7.0125 105.154 9.35625Z" fill="#E2E2E2"/>
<path d="M163.264 11.2652C164.025 10.2564 164.437 9.03016 164.437 7.74766C164.437 4.51141 161.805 1.87891 158.569 1.87891H142.567V22.1289H160.189C163.425 22.1289 166.057 19.4964 166.057 16.2602C166.057 14.2089 164.985 12.3264 163.264 11.2689V11.2652ZM157.339 10.3877H150.247V13.6164H158.959C160.414 13.6164 161.599 14.8014 161.599 16.2564C161.599 17.7114 160.414 18.8964 158.959 18.8964H147.019V5.10391H157.339C158.797 5.10391 159.982 6.28891 159.982 7.74391C159.982 9.19891 158.797 10.3839 157.339 10.3839V10.3877Z" fill="#E2E2E2"/>
<path d="M136.819 7.74375C136.819 4.5075 134.187 1.875 130.95 1.875H114.949V22.125H119.404V5.10375H129.724C131.183 5.10375 132.368 6.28875 132.368 7.74375C132.368 9.19875 131.183 10.3837 129.724 10.3837H122.629V13.6125H128.085L132.608 22.125H137.224L132.57 13.3612C135.045 12.6525 136.823 10.3687 136.823 7.74375H136.819Z" fill="#E2E2E2"/>
</svg>
